<?xml version="1.0" encoding="UTF-8" standalone="no"?>
<!-- Created with Inkscape (http://www.inkscape.org/) -->

<svg
   xmlns:dc="http://purl.org/dc/elements/1.1/"
   xmlns:cc="http://creativecommons.org/ns#"
   xmlns:rdf="http://www.w3.org/1999/02/22-rdf-syntax-ns#"
   xmlns:svg="http://www.w3.org/2000/svg"
   xmlns="http://www.w3.org/2000/svg"
   xmlns:sodipodi="http://sodipodi.sourceforge.net/DTD/sodipodi-0.dtd"
   xmlns:inkscape="http://www.inkscape.org/namespaces/inkscape"
   width="53mm"
   height="53mm"
   viewBox="0 0 53 53"
   version="1.1"
   id="svg1379"
   inkscape:version="0.92.4 (5da689c313, 2019-01-14)"
   sodipodi:docname="logo.svg">
  <defs
     id="defs1373" />
  <sodipodi:namedview
     id="base"
     pagecolor="#ffffff"
     bordercolor="#666666"
     borderopacity="1.0"
     inkscape:pageopacity="0.0"
     inkscape:pageshadow="2"
     inkscape:zoom="1.979899"
     inkscape:cx="102.97153"
     inkscape:cy="109.80968"
     inkscape:document-units="mm"
     inkscape:current-layer="layer1"
     showgrid="false"
     fit-margin-top="0"
     fit-margin-left="0"
     fit-margin-right="0"
     fit-margin-bottom="0"
     inkscape:window-width="1536"
     inkscape:window-height="801"
     inkscape:window-x="-8"
     inkscape:window-y="-8"
     inkscape:window-maximized="1" />
  <metadata
     id="metadata1376">
    <rdf:RDF>
      <cc:Work
         rdf:about="">
        <dc:format>image/svg+xml</dc:format>
        <dc:type
           rdf:resource="http://purl.org/dc/dcmitype/StillImage" />
        <dc:title></dc:title>
      </cc:Work>
    </rdf:RDF>
  </metadata>
  <g
     inkscape:label="Layer 1"
     inkscape:groupmode="layer"
     id="layer1"
     transform="translate(-50.287241,-74.570833)">
    <path
       inkscape:connector-curvature="0"
       id="path832-6-1-0-6"
       d="m 68.603855,88.535284 c -4.61288,0 -9.22627,1.749721 -12.72842,5.251876 -3.12206,3.122054 -4.84844,7.12747 -5.18729,11.22826 h 5.99603 c 0.32243,-2.54734 1.46526,-5.01388 3.43544,-6.98407 4.71142,-4.711421 12.25913,-4.711421 16.97055,0 a 3.0003708,3.0003708 0 0 0 4.242112,-4.24419 C 77.830114,90.285005 73.216745,88.535284 68.603855,88.535284 Z M 82.320337,99.747 c -0.178732,-0.004 -0.357273,-9.8e-4 -0.534861,0.009 -2.130941,0.1171 -4.147061,1.20697 -5.396561,3.02721 a 2.0004055,2.0004055 0 0 0 -0.0388,0.0636 l -1.63298,2.16886 h 5.00485 l 0.193281,-0.25683 c 0.74295,-0.84387 1.892589,-1.2069 3.00292,-0.91675 0.706218,0.18456 1.298009,0.60774 1.696541,1.17358 h 4.326868 c -0.622749,-2.43506 -2.527458,-4.39344 -5.011578,-5.04259 -0.534022,-0.13955 -1.073582,-0.21395 -1.609723,-0.22583 z m -13.030732,1.36064 a 2.0001999,2.0001999 0 0 0 -0.91003,0.19896 c -1.57609,0.73494 -2.72181,2.10512 -3.20703,3.70882 h 4.74958 c 0.0494,-0.0283 0.0964,-0.0593 0.14882,-0.0837 a 2.0001999,2.0001999 0 0 0 -0.78134,-3.82406 z m -18.60146,6.90811 c 0.33885,4.10078 2.06523,8.1062 5.18729,11.22825 7.00431,7.00431 18.45253,7.00431 25.456842,0 a 3.0003001,3.0003001 0 1 0 -4.242112,-4.24212 c -4.71142,4.71142 -12.25913,4.71142 -16.97055,0 -1.97073,-1.97072 -3.1139,-4.43805 -3.43596,-6.98613 z m 14.36761,0 c 0.47258,2.17039 2.12448,3.93823 4.30774,4.52324 2.40807,0.64524 4.97573,-0.2778 6.42597,-2.30012 l 0.002,0.002 1.67328,-2.22467 h -5.01263 c -0.49733,0.60237 -1.28728,0.86511 -2.0531,0.65991 -0.41584,-0.11143 -0.76965,-0.34619 -1.02784,-0.65991 z m 19.824111,0 c -0.291061,0.62277 -0.794581,1.14057 -1.451592,1.44694 a 2.0001999,2.0001999 0 1 0 1.69137,3.6251 c 2.080091,-0.96997 3.511913,-2.88588 3.918112,-5.07204 z"
       style="color:#000000;font-style:normal;font-variant:normal;font-weight:normal;font-stretch:normal;font-size:medium;line-height:normal;font-family:sans-serif;font-variant-ligatures:normal;font-variant-position:normal;font-variant-caps:normal;font-variant-numeric:normal;font-variant-alternates:normal;font-feature-settings:normal;text-indent:0;text-align:start;text-decoration:none;text-decoration-line:none;text-decoration-style:solid;text-decoration-color:#000000;letter-spacing:normal;word-spacing:normal;text-transform:none;writing-mode:lr-tb;direction:ltr;text-orientation:mixed;dominant-baseline:auto;baseline-shift:baseline;text-anchor:start;white-space:normal;shape-padding:0;clip-rule:nonzero;display:inline;overflow:visible;visibility:visible;opacity:1;isolation:auto;mix-blend-mode:normal;color-interpolation:sRGB;color-interpolation-filters:linearRGB;solid-color:#000000;solid-opacity:1;vector-effect:none;fill:#000000;fill-opacity:1;fill-rule:nonzero;stroke:none;stroke-width:6;stroke-linecap:round;stroke-linejoin:miter;stroke-miterlimit:4;stroke-dasharray:none;stroke-dashoffset:0;stroke-opacity:1;color-rendering:auto;image-rendering:auto;shape-rendering:auto;text-rendering:auto;enable-background:accumulate" />
    <path
       style="opacity:1;fill:none;fill-opacity:1;stroke:#000000;stroke-width:4;stroke-linecap:round;stroke-miterlimit:4;stroke-dasharray:none;stroke-dashoffset:0;stroke-opacity:1"
       id="path1345"
       sodipodi:type="arc"
       sodipodi:cx="73.714699"
       sodipodi:cy="105.34562"
       sodipodi:rx="20"
       sodipodi:ry="20"
       sodipodi:start="5.0614548"
       sodipodi:end="0"
       sodipodi:open="true"
       d="M 80.555101,86.551767 A 20,20 0 0 1 93.714699,105.34562" />
    <path
       style="opacity:1;fill:none;fill-opacity:1;stroke:#000000;stroke-width:4;stroke-linecap:round;stroke-miterlimit:4;stroke-dasharray:none;stroke-dashoffset:0;stroke-opacity:1"
       id="path1345-9"
       sodipodi:type="arc"
       sodipodi:cx="71.004829"
       sodipodi:cy="106.88657"
       sodipodi:rx="30.000002"
       sodipodi:ry="30.000002"
       sodipodi:start="5.0614548"
       sodipodi:end="0"
       sodipodi:open="true"
       d="M 81.265433,78.695793 A 30.000002,30.000002 0 0 1 101.00483,106.88657" />
  </g>
</svg>
