<?xml version="1.0" encoding="UTF-8" standalone="no"?>
<!-- Created with Inkscape (http://www.inkscape.org/) -->

<svg
   xmlns:dc="http://purl.org/dc/elements/1.1/"
   xmlns:cc="http://creativecommons.org/ns#"
   xmlns:rdf="http://www.w3.org/1999/02/22-rdf-syntax-ns#"
   xmlns:svg="http://www.w3.org/2000/svg"
   xmlns="http://www.w3.org/2000/svg"
   xmlns:sodipodi="http://sodipodi.sourceforge.net/DTD/sodipodi-0.dtd"
   xmlns:inkscape="http://www.inkscape.org/namespaces/inkscape"
   width="30.837856mm"
   height="31.073629mm"
   viewBox="0 0 30.837856 31.073629"
   version="1.1"
   id="svg7174"
   inkscape:version="0.92.4 (5da689c313, 2019-01-14)"
   sodipodi:docname="logo.svg">
  <defs
     id="defs7168" />
  <sodipodi:namedview
     id="base"
     pagecolor="#ffffff"
     bordercolor="#666666"
     borderopacity="1.0"
     inkscape:pageopacity="0.0"
     inkscape:pageshadow="2"
     inkscape:zoom="2.8"
     inkscape:cx="73.755788"
     inkscape:cy="75.81527"
     inkscape:document-units="mm"
     inkscape:current-layer="layer1"
     showgrid="false"
     fit-margin-top="0"
     fit-margin-left="0"
     fit-margin-right="0"
     fit-margin-bottom="0"
     inkscape:window-width="1920"
     inkscape:window-height="1001"
     inkscape:window-x="-9"
     inkscape:window-y="-9"
     inkscape:window-maximized="1" />
  <metadata
     id="metadata7171">
    <rdf:RDF>
      <cc:Work
         rdf:about="">
        <dc:format>image/svg+xml</dc:format>
        <dc:type
           rdf:resource="http://purl.org/dc/dcmitype/StillImage" />
        <dc:title></dc:title>
      </cc:Work>
    </rdf:RDF>
  </metadata>
  <g
     inkscape:label="Layer 1"
     inkscape:groupmode="layer"
     id="layer1"
     transform="translate(-20.110833,-105.32628)">
    <path
       inkscape:connector-curvature="0"
       id="path832-6-1-0"
       d="m 35.374604,113.52099 c -1.988825,0 -3.977866,0.75441 -5.487815,2.26436 -1.346046,1.34604 -2.090403,3.07298 -2.236476,4.84101 h 2.585164 c 0.13913,-1.09829 0.63173,-2.1617 1.481178,-3.01115 2.031294,-2.03132 5.285497,-2.03132 7.316818,0 a 1.2936031,1.2936031 0 0 0 1.828975,-1.82986 c -1.509976,-1.50995 -3.499018,-2.26436 -5.487844,-2.26436 z m 5.913823,4.83391 c -0.07699,-0.001 -0.153988,-4.3e-4 -0.230442,0.003 -0.918769,0.0505 -1.787992,0.5204 -2.326735,1.30519 a 0.86246896,0.86246896 0 0 0 -0.01621,0.0281 l -0.704023,0.93506 h 2.157807 l 0.08348,-0.11076 c 0.320457,-0.36384 0.815975,-0.52034 1.294689,-0.39526 0.30433,0.0794 0.559626,0.26205 0.731444,0.506 h 1.865527 c -0.268534,-1.04988 -1.089697,-1.89425 -2.160725,-2.17413 -0.230172,-0.0603 -0.462884,-0.0921 -0.694028,-0.0973 z m -5.618165,0.58664 a 0.86238032,0.86238032 0 0 0 -0.392346,0.0859 c -0.67952,0.31694 -1.173498,0.90761 -1.382733,1.59904 h 2.047773 c 0.02161,-0.0108 0.0416,-0.0243 0.06403,-0.0362 a 0.86238032,0.86238032 0 0 0 -0.336913,-1.64875 z m -8.019949,2.9784 c 0.146154,1.76805 0.89043,3.49497 2.236476,4.84104 3.019898,3.01987 7.95576,3.01987 10.975659,0 a 1.2935707,1.2935707 0 1 0 -1.828975,-1.829 c -2.031321,2.03132 -5.285524,2.03132 -7.316818,0 -0.849691,-0.84964 -1.342561,-1.91346 -1.481421,-3.01204 z m 6.19454,0 c 0.203697,0.93576 0.91596,1.69792 1.85726,1.95019 1.038259,0.27807 2.145272,-0.11968 2.770545,-0.99171 l 9e-4,6.9e-4 0.721421,-0.95916 h -2.161184 c -0.214233,0.25989 -0.555006,0.373 -0.885216,0.28472 -0.179383,-0.0481 -0.331642,-0.14913 -0.443135,-0.28472 z m 8.54713,0 c -0.125352,0.26853 -0.342502,0.49176 -0.625868,0.62381 a 0.86238032,0.86238032 0 1 0 0.729256,1.56298 c 0.896779,-0.41819 1.51411,-1.24422 1.689251,-2.18679 z"
       style="color:#000000;font-style:normal;font-variant:normal;font-weight:normal;font-stretch:normal;font-size:medium;line-height:normal;font-family:sans-serif;font-variant-ligatures:normal;font-variant-position:normal;font-variant-caps:normal;font-variant-numeric:normal;font-variant-alternates:normal;font-feature-settings:normal;text-indent:0;text-align:start;text-decoration:none;text-decoration-line:none;text-decoration-style:solid;text-decoration-color:#000000;letter-spacing:normal;word-spacing:normal;text-transform:none;writing-mode:lr-tb;direction:ltr;text-orientation:mixed;dominant-baseline:auto;baseline-shift:baseline;text-anchor:start;white-space:normal;shape-padding:0;clip-rule:nonzero;display:inline;overflow:visible;visibility:visible;opacity:1;isolation:auto;mix-blend-mode:normal;color-interpolation:sRGB;color-interpolation-filters:linearRGB;solid-color:#000000;solid-opacity:1;vector-effect:none;fill:#000000;fill-opacity:1;fill-rule:nonzero;stroke:none;stroke-width:2.58688235;stroke-linecap:round;stroke-linejoin:miter;stroke-miterlimit:4;stroke-dasharray:none;stroke-dashoffset:0;stroke-opacity:1;color-rendering:auto;image-rendering:auto;shape-rendering:auto;text-rendering:auto;enable-background:accumulate" />
    <path
       id="path7041"
       d="m 46.450923,114.66615 c 0,-2.78686 -2.292884,-5.07999 -5.07972,-5.07999 v -1.27 c 3.483241,0 6.349988,2.86675 6.349988,6.34999 z m -4.208984,-1.74228 c 0.479957,0 0.871276,0.39132 0.871276,0.87181 0,0.47969 -0.392913,0.87047 -0.873383,0.87047 -0.479687,0 -0.868629,-0.39 -0.868629,-0.87047 0,-0.48049 0.390266,-0.87154 0.870736,-0.87181 z m 3.338518,1.74228 h -1.234283 c 0,-1.63222 -1.342777,-2.97524 -2.974971,-2.97524 v -1.23429 c 2.309013,0 4.209254,1.90079 4.209254,4.20953 z"
       inkscape:connector-curvature="0"
       style="fill:#ffa500;fill-opacity:1;stroke:none;stroke-width:0.21001302;stroke-miterlimit:4;stroke-dasharray:none;stroke-opacity:1" />
    <path
       id="path7054-8"
       d="m 37.470736,110.73753 h -0.940328 v -1.47348 c 0,-0.35136 -0.0081,-0.80352 -0.490007,-0.80352 -0.490277,0 -0.565164,0.38233 -0.565164,0.77762 v 1.49938 H 34.53491 v -3.03 h 0.903289 v 0.41301 h 0.01351 c 0.126162,-0.238 0.433112,-0.48949 0.891646,-0.48949 0.952755,0 1.128977,0.62706 1.128977,1.4433 v 1.66318 z m -3.997859,-3.44461 c -0.302681,0 -0.545821,-0.24503 -0.545821,-0.54636 0,-0.30111 0.24341,-0.54585 0.545821,-0.54585 0.301628,0 0.546091,0.24476 0.546091,0.54585 0,0.30136 -0.24476,0.54636 -0.546091,0.54636 z m 0.471501,3.44461 h -0.942975 v -3.03 h 0.942975 z m 3.996778,-5.41125 h -5.411794 c -0.259079,0 -0.468557,0.20478 -0.468557,0.45745 v 5.43508 c 0,0.25287 0.20964,0.45746 0.468557,0.45746 h 5.411011 c 0.258808,0 0.47042,-0.20451 0.47042,-0.45746 v -5.43508 c 0,-0.25259 -0.211801,-0.45745 -0.47042,-0.45745 z"
       inkscape:connector-curvature="0"
       style="fill:#0077b5;fill-opacity:1;stroke-width:0.21001302;stroke-miterlimit:4;stroke-dasharray:none" />
    <path
       id="path7067"
       d="m 29.824221,111.01711 a 0.79560211,0.79560211 0 0 0 -0.552439,-0.55243 c -0.494762,-0.13265 -2.486019,-0.13265 -2.486019,-0.13265 0,0 -1.986231,-0.003 -2.486045,0.13265 a 0.79560211,0.79560211 0 0 0 -0.552439,0.55243 8.2674354,8.2674354 0 0 0 -0.138049,1.53592 8.2674354,8.2674354 0 0 0 0.138049,1.53007 0.79560211,0.79560211 0 0 0 0.552439,0.55247 c 0.494248,0.13291 2.486045,0.13291 2.486045,0.13291 0,0 1.985962,0 2.486019,-0.13291 a 0.79560211,0.79560211 0 0 0 0.552439,-0.55247 8.2674354,8.2674354 0 0 0 0.132376,-1.53007 8.2674354,8.2674354 0 0 0 -0.132376,-1.53592 z m -3.673997,2.48602 V 111.6 l 1.657346,0.95303 z"
       inkscape:connector-curvature="0"
       style="fill:#ff0000;fill-opacity:1;stroke-width:0.21001302;stroke-miterlimit:4;stroke-dasharray:none" />
    <path
       id="path7080-8"
       d="m 23.285827,117.77233 c -1.754196,0 -3.174994,1.42161 -3.174994,3.17503 0,1.40307 0.909639,2.59291 2.17091,3.01228 0.158851,0.03 0.216934,-0.0683 0.216934,-0.15264 0,-0.0754 -0.0026,-0.27518 -0.0027,-0.53977 -0.88319,0.19154 -1.069461,-0.42595 -1.069461,-0.42595 -0.144533,-0.36647 -0.353228,-0.46437 -0.353228,-0.46437 -0.287579,-0.19695 0.02161,-0.19289 0.02161,-0.19289 0.318837,0.0216 0.486305,0.32702 0.486305,0.32702 0.283096,0.48549 0.743223,0.34528 0.924713,0.26394 0.02864,-0.20532 0.110223,-0.34528 0.200995,-0.42466 -0.705132,-0.0794 -1.446221,-0.35241 -1.446221,-1.56897 0,-0.34661 0.122921,-0.62971 0.326753,-0.85196 -0.03566,-0.0802 -0.142912,-0.40297 0.02783,-0.84032 0,0 0.265832,-0.0851 0.87314,0.32543 0.253945,-0.0708 0.523884,-0.10563 0.793742,-0.10725 0.269884,0.002 0.539769,0.0365 0.793768,0.10725 0.603229,-0.41064 0.869142,-0.32543 0.869142,-0.32543 0.170738,0.43735 0.06349,0.76016 0.03188,0.84032 0.202346,0.22233 0.325456,0.50535 0.325456,0.85196 0,1.21972 -0.74217,1.48828 -1.448597,1.56633 0.111033,0.0954 0.214233,0.28998 0.214233,0.58737 0,0.42492 -0.0027,0.76624 -0.0027,0.86944 0,0.0835 0.05565,0.18262 0.218285,0.15074 1.270267,-0.41644 2.179095,-1.60707 2.179095,-3.00804 0,-1.75341 -1.421608,-3.17502 -3.174994,-3.17502"
       inkscape:connector-curvature="0"
       style="fill:#181717;fill-opacity:1;stroke-width:0.21001302;stroke-miterlimit:4;stroke-dasharray:none" />
    <path
       id="path7093"
       d="m 46.555122,122.95336 -1.792801,-1.80552 c -0.218285,-0.21802 -0.218285,-0.6903 0,-0.89694 l 2.568848,-2.58022 c 0.206669,-0.2064 0.667012,-0.2064 0.872329,0 l 2.581275,2.58049 c 0.218556,0.21828 0.218556,0.69081 0,0.89721 l -1.793611,1.8055 c -0.108873,0.1086 -0.278611,0.18154 -0.448484,0.18154 h -1.563143 c -0.157771,-2.6e-4 -0.314865,-0.0729 -0.424413,-0.18208 z m 1.636192,-0.70275 c 0.0362,-0.0365 0.0362,-0.10914 0,-0.14561 l -0.351362,-0.35137 c -0.03647,-0.0397 -0.109143,-0.0397 -0.145343,0 l -0.351634,0.34899 c -0.03647,0.0354 -0.03647,0.10725 0,0.14291 l 0.278881,0.26583 h 0.290767 l 0.281797,-0.26988 z m 0,-1.49039 c 0.02432,-0.0243 0.02432,-0.0846 0,-0.10914 l -0.375704,-0.37279 c -0.02432,-0.0243 -0.08456,-0.0243 -0.109143,0 l -1.090345,1.09113 c -0.03674,0.0397 -0.03674,0.12292 0,0.15912 l 0.253677,0.25395 h 0.291576 l 1.030021,-1.01997 v -0.002 z m 0,-1.47823 c 0.02432,-0.0243 0.0362,-0.0967 0,-0.12103 l -0.363789,-0.36355 c -0.02432,-0.0276 -0.09645,-0.0276 -0.132916,0 l -1.829327,1.8296 c -0.02431,0.0243 -0.03701,0.0951 -0.01351,0.11886 l 0.291038,0.27783 h 0.27861 z"
       inkscape:connector-curvature="0"
       style="fill:#2bb24c;fill-opacity:1;stroke-width:0.21001302;stroke-miterlimit:4;stroke-dasharray:none" />
    <path
       id="path7106-6"
       d="m 25.38701,131.41421 c -0.754866,0 -1.444625,-0.27518 -1.978046,-0.73185 l -1.312844,0.17992 0.507188,-1.25228 c -0.176411,-0.39026 -0.275693,-0.82286 -0.275693,-1.27926 0,-1.70287 1.369226,-3.08347 3.059908,-3.08347 1.688035,0 3.058585,1.3806 3.058585,3.08347 0,1.70338 -1.369469,3.08347 -3.059098,3.08347 z m 1.670826,-3.0922 v -0.008 c 0,-0.88981 -0.627839,-1.52402 -1.709728,-1.52402 h -1.167879 v 3.08401 h 1.15094 c 1.090075,0 1.726397,-0.66148 1.726397,-1.55126 h 0.0011 z m -1.697301,0.79321 h -0.341313 v -1.56766 h 0.341313 c 0.50192,0 0.835292,0.28577 0.835292,0.77921 v 0.008 c 0,0.49846 -0.333372,0.7805 -0.835292,0.7805 z"
       inkscape:connector-curvature="0"
       style="fill:#2e9fff;fill-opacity:1;stroke-width:0.21001302;stroke-miterlimit:4;stroke-dasharray:none" />
    <path
       id="path7119"
       d="m 38.153957,133.26371 c 0,-1.75338 -1.421393,-3.17475 -3.174751,-3.17475 -1.753385,0 -3.174751,1.42137 -3.174751,3.17475 0,1.58462 1.160963,2.89801 2.678693,3.1362 v -2.21848 H 33.67706 v -0.91772 h 0.806088 v -0.69943 c 0,-0.79569 0.473959,-1.23517 1.199136,-1.23517 0.347338,0 0.710669,0.0619 0.710669,0.0619 v 0.78128 h -0.400315 c -0.394372,0 -0.517401,0.24477 -0.517401,0.49579 v 0.59553 h 0.880516 l -0.140751,0.91772 h -0.739765 v 2.21848 c 1.517757,-0.23828 2.67872,-1.55158 2.67872,-3.1362 z"
       inkscape:connector-curvature="0"
       style="fill:#4172b8;fill-opacity:1;stroke-width:0.21001302;stroke-miterlimit:4;stroke-dasharray:none" />
    <path
       id="path7132-3"
       d="m 45.47407,125.69973 c -1.751791,0 -3.171806,1.42001 -3.171806,3.17156 0,1.34381 0.835535,2.49159 2.015598,2.95328 -0.02783,-0.25124 -0.05268,-0.63581 0.01081,-0.90991 0.05781,-0.248 0.372003,-1.57614 0.372003,-1.57614 0,0 -0.0951,-0.19045 -0.0951,-0.4712 0,-0.44 0.255837,-0.77021 0.57362,-0.77021 0.270938,0 0.401639,0.20343 0.401639,0.44662 0,0.27226 -0.172899,0.6792 -0.26232,1.05622 -0.07537,0.31565 0.158851,0.57281 0.469637,0.57281 0.563029,0 0.996951,-0.59399 0.996951,-1.45175 0,-0.75698 -0.545847,-1.28826 -1.325054,-1.28826 -0.902209,0 -1.431118,0.67787 -1.431118,1.37557 0,0.27331 0.10428,0.567 0.235305,0.7252 0.02701,0.0319 0.02972,0.0594 0.02161,0.0913 -0.02431,0.0992 -0.07753,0.31724 -0.08834,0.36063 -0.01351,0.0594 -0.04566,0.0716 -0.106171,0.0438 -0.395561,-0.18262 -0.643752,-0.76146 -0.643752,-1.22926 0,-0.99906 0.727094,-1.91874 2.095509,-1.91874 1.100125,0 1.955811,0.78501 1.955811,1.8317 0,1.09405 -0.689784,1.97432 -1.649158,1.97432 -0.321214,0 -0.622842,-0.16642 -0.729715,-0.36485 l -0.198294,0.75352 c -0.07105,0.2765 -0.265562,0.6223 -0.396344,0.8324 0.297144,0.0913 0.610145,0.14156 0.939274,0.14156 1.74809,0 3.171022,-1.41947 3.171022,-3.17156 0,-1.75233 -1.422932,-3.17156 -3.171022,-3.17156 z"
       inkscape:connector-curvature="0"
       style="fill:#bd081c;fill-opacity:1;stroke-width:0.21001302;stroke-miterlimit:4;stroke-dasharray:none" />
  </g>
</svg>
